<?xml version="1.0" standalone="no"?>
<!DOCTYPE svg PUBLIC "-//W3C//DTD SVG 20010904//EN"
 "http://www.w3.org/TR/2001/REC-SVG-20010904/DTD/svg10.dtd">
<svg version="1.0" xmlns="http://www.w3.org/2000/svg"
 width="260.000000pt" height="260.000000pt" viewBox="0 0 260.000000 260.000000"
 preserveAspectRatio="xMidYMid meet">
<metadata>
Created by potrace 1.11, written by Peter Selinger 2001-2013
</metadata>
<g transform="translate(0.000000,260.000000) scale(0.100000,-0.100000)"
fill="#000000" stroke="none">
<path d="M1251 1930 c-109 -91 -192 -189 -307 -362 -37 -56 -62 -103 -58 -109
4 -7 3 -9 -4 -5 -9 6 -86 -113 -164 -254 -14 -25 -35 -63 -48 -85 -12 -22 -40
-74 -62 -115 -42 -79 -58 -102 -58 -83 0 7 4 14 9 17 5 3 15 30 21 58 7 29 16
58 20 63 14 20 159 513 178 608 8 41 7 51 -9 70 -10 12 -18 18 -19 13 0 -5 -9
-1 -19 8 -31 28 -103 46 -128 32 -35 -18 -262 -463 -338 -661 -52 -137 -65
-185 -69 -255 -4 -65 8 -105 37 -125 34 -24 47 -19 47 20 0 19 4 35 9 35 5 0
19 32 31 71 13 40 45 114 72 166 26 52 48 101 48 108 0 7 4 15 8 17 5 2 36 53
69 113 34 61 74 135 91 165 17 30 35 56 40 58 11 3 -19 -121 -78 -323 -89
-305 -92 -316 -85 -351 7 -41 46 -63 74 -42 33 26 37 33 190 323 35 66 84 155
108 198 28 47 43 85 40 97 -3 10 -2 20 3 22 10 4 80 104 80 115 0 19 175 246
243 315 47 47 48 54 -28 -132 -26 -63 -65 -158 -87 -210 -62 -145 -185 -487
-223 -621 -38 -132 -55 -284 -36 -331 5 -15 22 -35 36 -44 24 -16 27 -16 45 1
11 10 23 34 27 54 4 20 8 38 8 41 1 3 7 25 14 50 7 25 19 70 27 100 8 30 19
64 24 75 4 11 29 76 53 145 55 153 139 354 171 412 13 24 27 54 31 68 4 14 41
93 82 177 63 129 74 159 75 204 0 47 -4 56 -29 76 -15 12 -35 29 -45 37 -37
32 -54 28 -117 -24z m-31 -64 c0 -2 -7 -7 -16 -10 -8 -3 -12 -2 -9 4 6 10 25
14 25 6z m-121 -138 c-50 -62 -102 -132 -116 -156 -14 -24 -27 -41 -30 -38 -7
7 39 85 67 115 9 9 29 35 45 56 54 74 107 135 115 135 5 0 -32 -51 -81 -112z
m-124 -714 c-14 -48 -25 -67 -25 -44 0 23 23 90 31 90 4 0 2 -21 -6 -46z m-43
-116 c-6 -6 -7 0 -4 19 5 21 7 23 10 9 2 -10 0 -22 -6 -28z m-31 -125 c-9 -15
-10 -14 -7 7 3 14 5 32 7 40 1 8 4 5 6 -7 2 -12 0 -30 -6 -40z"/>
<path d="M2210 1958 c-83 -8 -145 -21 -235 -48 -41 -12 -84 -16 -138 -14 -43
2 -84 1 -92 -3 -8 -3 -23 -24 -34 -47 -18 -39 -24 -43 -136 -90 -106 -45 -119
-52 -132 -84 -19 -45 -10 -80 24 -93 32 -12 61 -6 126 27 27 13 51 24 53 24
10 0 -62 -253 -80 -283 -6 -10 -70 -47 -142 -82 -71 -35 -136 -70 -143 -79
-19 -23 -5 -63 27 -80 26 -13 34 -12 101 15 79 32 101 35 101 17 0 -7 -29 -98
-65 -203 -61 -181 -107 -365 -97 -393 6 -16 32 4 32 24 0 8 5 14 11 14 6 0 8
10 5 23 -3 12 -3 16 0 10 3 -7 9 -13 14 -13 13 0 53 109 47 130 -3 11 -2 20 3
20 4 0 16 22 26 49 9 27 25 52 33 54 16 4 108 194 114 234 1 12 8 27 14 35 6
7 21 39 33 70 11 31 26 60 33 66 23 18 123 50 197 62 41 7 84 18 95 24 29 17
96 13 140 -8 31 -15 39 -16 46 -5 11 19 -26 57 -81 82 -34 15 -67 21 -135 21
-85 1 -178 -9 -197 -20 -4 -3 -8 -1 -8 5 0 20 91 289 103 303 21 26 271 99
384 113 134 16 160 14 219 -16 l57 -30 -6 35 c-17 106 -131 154 -317 134z m46
-17 c-5 -8 -48 -20 -166 -47 -60 -15 -90 -16 -90 -5 0 7 4 9 10 6 5 -3 20 1
33 9 13 9 41 18 63 21 21 3 59 9 84 14 61 12 72 12 66 2z m60 0 c-8 -12 -46
-21 -46 -11 0 5 10 11 23 13 12 2 23 5 25 6 2 0 1 -3 -2 -8z m-341 -61 c-3 -5
-13 -10 -21 -10 -8 0 -12 5 -9 10 3 6 13 10 21 10 8 0 12 -4 9 -10z m-490
-929 c-13 -33 -33 -94 -45 -135 -13 -42 -27 -76 -31 -76 -5 0 -9 3 -9 8 0 27
93 262 104 262 2 0 -6 -27 -19 -59z m-85 -249 c0 -10 -7 -27 -15 -38 -13 -17
-14 -16 -5 16 6 19 10 36 10 37 0 2 2 3 5 3 3 0 5 -8 5 -18z m30 8 c0 -5 -5
-10 -11 -10 -5 0 -7 5 -4 10 3 6 8 10 11 10 2 0 4 -4 4 -10z"/>
</g>
</svg>
